<?xml version="1.0" encoding="utf-8"?>
<svg viewBox="0 0 500 500" xmlns="http://www.w3.org/2000/svg">
  <rect x="-397.666" y="-97.819" width="1219.485" height="600" fill="#ffffff" style="" transform="matrix(0.9999999999999999, 0, 0, 0.9999999999999999, -1.1368683772161603e-13, -2.842170943040401e-14)"/>
  <path d="M -411.386 208.271 L -388.173 218.471 C -365.099 228.571 -318.674 248.971 -272.388 253.271 C -226.101 257.571 -179.676 245.971 -133.389 241.271 C -87.103 236.571 -40.678 238.971 5.609 252.971 C 51.895 266.971 98.321 292.571 144.607 305.471 C 190.893 318.271 237.319 318.271 283.605 303.771 C 329.891 289.271 376.317 260.271 422.603 243.771 C 468.89 227.271 515.315 223.271 561.601 222.571 C 607.888 221.971 654.313 224.571 700.6 233.571 C 746.886 242.571 793.311 257.971 816.385 265.571 L 839.598 273.271 L 839.598 509.271 L 816.385 509.271 C 793.311 509.271 746.886 509.271 700.6 509.271 C 654.313 509.271 607.888 509.271 561.601 509.271 C 515.315 509.271 468.89 509.271 422.603 509.271 C 376.317 509.271 329.891 509.271 283.605 509.271 C 237.319 509.271 190.893 509.271 144.607 509.271 C 98.321 509.271 51.895 509.271 5.609 509.271 C -40.678 509.271 -87.103 509.271 -133.389 509.271 C -179.676 509.271 -226.101 509.271 -272.388 509.271 C -318.674 509.271 -365.099 509.271 -388.173 509.271 L -411.386 509.271 L -411.386 208.271 Z" fill="#3e87ce" style="" transform="matrix(0.9999999999999999, 0, 0, 0.9999999999999999, -1.1368683772161603e-13, -2.842170943040401e-14)"/>
  <path d="M -422.415 297.437 L -398.869 302.737 C -375.463 308.137 -328.37 318.737 -281.417 314.637 C -234.465 310.437 -187.371 291.437 -140.419 296.737 C -93.467 302.137 -46.373 331.737 0.579 333.237 C 47.531 334.737 94.625 308.137 141.577 294.937 C 188.529 281.737 235.623 282.137 282.575 285.937 C 329.527 289.737 376.621 297.137 423.573 308.237 C 470.525 319.437 517.619 334.437 564.571 338.737 C 611.523 343.137 658.617 336.737 705.569 328.237 C 752.522 319.737 799.615 309.137 823.021 303.737 L 846.567 298.437 L 846.567 520.437 L 823.021 520.437 C 799.615 520.437 752.522 520.437 705.569 520.437 C 658.617 520.437 611.523 520.437 564.571 520.437 C 517.619 520.437 470.525 520.437 423.573 520.437 C 376.621 520.437 329.527 520.437 282.575 520.437 C 235.623 520.437 188.529 520.437 141.577 520.437 C 94.625 520.437 47.531 520.437 0.579 520.437 C -46.373 520.437 -93.467 520.437 -140.419 520.437 C -187.371 520.437 -234.465 520.437 -281.417 520.437 C -328.37 520.437 -375.463 520.437 -398.869 520.437 L -422.415 520.437 L -422.415 297.437 Z" fill="#3877b6" style="" transform="matrix(0.9999999999999999, 0, 0, 0.9999999999999999, -1.1368683772161603e-13, -2.842170943040401e-14)"/>
  <path d="M -432.54 336.181 L -408.617 340.881 C -384.838 345.481 -336.993 354.881 -289.292 352.381 C -241.59 349.881 -193.745 335.481 -146.044 336.481 C -98.342 337.481 -50.497 353.881 -2.796 358.481 C 44.906 363.181 92.75 356.181 140.452 351.481 C 188.154 346.881 235.998 344.481 283.7 346.181 C 331.402 347.881 379.246 353.481 426.948 346.681 C 474.649 339.881 522.494 320.481 570.196 310.481 C 617.897 300.481 665.742 299.881 713.444 304.481 C 761.145 309.181 808.99 319.181 832.769 324.181 L 856.692 329.181 L 856.692 503.181 L 832.769 503.181 C 808.99 503.181 761.145 503.181 713.444 503.181 C 665.742 503.181 617.897 503.181 570.196 503.181 C 522.494 503.181 474.649 503.181 426.948 503.181 C 379.246 503.181 331.402 503.181 283.7 503.181 C 235.998 503.181 188.154 503.181 140.452 503.181 C 92.75 503.181 44.906 503.181 -2.796 503.181 C -50.497 503.181 -98.342 503.181 -146.044 503.181 C -193.745 503.181 -241.59 503.181 -289.292 503.181 C -336.993 503.181 -384.838 503.181 -408.617 503.181 L -432.54 503.181 L -432.54 336.181 Z" fill="#31679f" style="" transform="matrix(0.9999999999999999, 0, 0, 0.9999999999999999, -1.1368683772161603e-13, -2.842170943040401e-14)"/>
  <path d="M -417.915 356.181 L -394.536 353.881 C -371.296 351.481 -324.537 346.881 -277.917 345.381 C -231.298 343.881 -184.539 345.481 -137.919 348.181 C -91.3 350.881 -44.541 354.481 2.079 364.181 C 48.698 373.881 95.458 389.481 142.077 385.981 C 188.696 382.481 235.456 359.881 282.075 358.181 C 328.694 356.481 375.454 375.881 422.073 379.681 C 468.693 383.481 515.452 371.881 562.071 367.481 C 608.691 363.181 655.45 366.181 702.069 364.481 C 748.689 362.881 795.448 356.481 818.688 353.381 L 842.067 350.181 L 842.067 503.181 L 818.688 503.181 C 795.448 503.181 748.689 503.181 702.069 503.181 C 655.45 503.181 608.691 503.181 562.071 503.181 C 515.452 503.181 468.693 503.181 422.073 503.181 C 375.454 503.181 328.694 503.181 282.075 503.181 C 235.456 503.181 188.696 503.181 142.077 503.181 C 95.458 503.181 48.698 503.181 2.079 503.181 C -44.541 503.181 -91.3 503.181 -137.919 503.181 C -184.539 503.181 -231.298 503.181 -277.917 503.181 C -324.537 503.181 -371.296 503.181 -394.536 503.181 L -417.915 503.181 L -417.915 356.181 Z" fill="#2b5789" style="" transform="matrix(0.9999999999999999, 0, 0, 0.9999999999999999, -1.1368683772161603e-13, -2.842170943040401e-14)"/>
  <path d="M -419.04 428.181 L -395.619 424.681 C -372.338 421.181 -325.495 414.181 -278.792 408.981 C -232.09 403.881 -185.247 400.481 -138.544 404.481 C -91.842 408.481 -44.999 419.881 1.704 427.181 C 48.406 434.481 95.249 437.881 141.952 434.481 C 188.655 431.181 235.497 421.181 282.2 413.881 C 328.903 406.481 375.746 401.881 422.448 396.981 C 469.151 392.181 515.994 387.181 562.696 393.881 C 609.399 400.481 656.242 418.881 702.944 427.481 C 749.647 436.181 796.49 435.181 819.771 434.681 L 843.192 434.181 L 843.192 503.181 L 819.771 503.181 C 796.49 503.181 749.647 503.181 702.944 503.181 C 656.242 503.181 609.399 503.181 562.696 503.181 C 515.994 503.181 469.151 503.181 422.448 503.181 C 375.746 503.181 328.903 503.181 282.2 503.181 C 235.497 503.181 188.655 503.181 141.952 503.181 C 95.249 503.181 48.406 503.181 1.704 503.181 C -44.999 503.181 -91.842 503.181 -138.544 503.181 C -185.247 503.181 -232.09 503.181 -278.792 503.181 C -325.495 503.181 -372.338 503.181 -395.619 503.181 L -419.04 503.181 L -419.04 428.181 Z" fill="#234873" style="" transform="matrix(0.9999999999999999, 0, 0, 0.9999999999999999, -1.1368683772161603e-13, -2.842170943040401e-14)"/>
  <path d="M -428.04 465.181 L -404.285 461.181 C -380.671 457.181 -333.161 449.181 -285.792 444.981 C -238.423 440.881 -190.913 440.481 -143.544 444.181 C -96.175 447.881 -48.665 455.481 -1.296 459.381 C 46.073 463.181 93.583 463.181 140.952 456.881 C 188.321 450.481 235.831 437.881 283.2 436.981 C 330.569 436.181 378.079 447.181 425.448 451.681 C 472.817 456.181 520.327 454.181 567.696 454.381 C 615.065 454.481 662.575 456.881 709.944 452.881 C 757.313 448.881 804.823 438.481 828.437 433.381 L 852.192 428.181 L 852.192 503.181 L 828.437 503.181 C 804.823 503.181 757.313 503.181 709.944 503.181 C 662.575 503.181 615.065 503.181 567.696 503.181 C 520.327 503.181 472.817 503.181 425.448 503.181 C 378.079 503.181 330.569 503.181 283.2 503.181 C 235.831 503.181 188.321 503.181 140.952 503.181 C 93.583 503.181 46.073 503.181 -1.296 503.181 C -48.665 503.181 -96.175 503.181 -143.544 503.181 C -190.913 503.181 -238.423 503.181 -285.792 503.181 C -333.161 503.181 -380.671 503.181 -404.285 503.181 L -428.04 503.181 L -428.04 465.181 Z" fill="#1c3a5e" style="" transform="matrix(0.9999999999999999, 0, 0, 0.9999999999999999, -1.1368683772161603e-13, -2.842170943040401e-14)"/>
</svg>